<?xml version="1.0" encoding="UTF-8" standalone="no"?>
<?xml-stylesheet type="text/css" href="/styles/style.css" ?>
<svg
    id="svg4206"
    xmlns:rdf="http://www.w3.org/1999/02/22-rdf-syntax-ns#"
    xmlns="http://www.w3.org/2000/svg"
    height="48.006mm"
    width="148.73mm"
    version="1.1"
    xmlns:cc="http://creativecommons.org/ns#"
    xmlns:dc="http://purl.org/dc/elements/1.1/"
    viewBox="0 0 526.99999 170.0998">
    <g id="g5514" transform="translate(-56 -814.31)">
        <path
            id="resistor-body"
            fill="#aaa"
            d="m583 880.36c-18.737-1.2999-26.612-3.2618-30-10-3.3877-6.7382-3.5105-8.6876-4-20-0.48953-11.312-16.075-31.102-28-36h-56c-11.996-0.0696-14.194 11.238-34 12 0 0-224.36-0.35714-224 0-18.377-0.60026-21.004-12.07-33-12h-56c-11.925 4.898-27.51 24.688-28 36-0.48954 11.312-0.6123 13.594-4 20.332-3.3877 6.7382-11.263 8.368-30 9.668v40c18.737 1.2999 26.612 1.2618 30 8 3.3877 6.7382 3.5105 8.6876 4 20 0.48954 11.312 16.075 31.102 28 36h56c11.996 0.0696 14.623-11.4 33-12-0.35715 0.35714 224-0.1 224-0.1 19.764 0.42886 22.004 12.17 34 12.1h56c11.925-4.898 27.51-24.688 28-36 0.48953-11.312 0.61231-13.262 4-20 3.3877-6.7382 11.263-6.7001 30-8z"/>
    </g>
    <g id="g4207" transform="translate(-56 -814.31)">
        <path id="band-1" d="m130.05 814.36v170h29.898v-170h-29.898z"/>
    </g>
    <g id="g4209" transform="translate(-56 -814.31)">
        <path id="band-2" d="m195.05 823.91v150.9c3.167-1.3136 6.9681-2.2885 11.949-2.4512-0.0595 0.0595 7.6119 0.0911 17.949 0.11133v-146.23c-10.337 0.0248-18.009 0.0577-17.949 0.11719-4.9811-0.1627-8.7822-1.1357-11.949-2.4492z"/>
    </g>
    <g id="g4211" transform="translate(-56 -814.31)">
        <path id="band-3" band-3="rect4530" d="m260.05 826.21v146.27c9.2856-0.002 19.412-0.0123 29.906-0.0215v-146.24c-10.494-0.005-20.621-0.01-29.906-0.008z"/>
    </g>
    <g id="g4213" transform="translate(-56 -814.31)">
        <path id="band-4" d="m325.05 826.24v146.2c14.899-0.0198 16.497-0.027 29.898-0.0488v-146.12c-13.401-0.0159-15-0.022-29.898-0.0352z"/>
    </g>
    <g id="g4215" transform="translate(-56 -814.31)">
        <path id="band-5" d="m390.05 826.31v146.02c8.9266-0.0166 27.096-0.0432 29.898-0.0488v-145.93c-2.8023-0.004-20.972-0.0225-29.898-0.0352z"/>
    </g>
    <g id="g4217" transform="translate(-56 -814.31)">
        <path id="band-6" d="m470.05 814.36v170h49.898v-170h-49.898z"/>
    </g>
</svg>
