<svg height="170.0998" id="svg4206" width="526.99999" version="1.1" viewBox="0 0 526.99999 170.0998">
    <g>
        <path
            id="resistor-body"
            fill="#aaa"
            d="m527 66.051c-18.737-1.2999-26.612-3.2618-30-10-3.3877-6.7382-3.5105-8.6876-4-20-0.49-11.313-16.07-31.102-28-36h-56c-11.996-0.0696-14.194 11.238-34 12 0 0-224.36-0.35714-224 0-18.377-0.60026-21.004-12.07-33-12h-56c-11.925 4.8977-27.51 24.687-28 36-0.48954 11.312-0.61231 13.594-4 20.332-3.3877 6.7382-11.263 8.368-30 9.668v40c18.737 1.2999 26.612 1.2618 30 8 3.3877 6.7382 3.5105 8.6876 4 20 0.48953 11.312 16.075 31.102 28 36h56c11.996 0.0696 14.623-11.4 33-12-0.35715 0.35714 224-0.1 224-0.1 19.764 0.42886 22.004 12.17 34 12.1h56c11.925-4.898 27.51-24.688 28-36 0.48953-11.312 0.61231-13.262 4-20 3.3877-6.7382 11.263-6.7001 30-8z"/>
        <path id="band-1" d="m74.05 0.049894v170h29.9v-170h-29.9z"/>
        <path id="band-2" d="m139.05 9.6007v150.9c3.1672-1.3136 6.9686-2.2885 11.95-2.4512-0.0595 0.0595 7.6124 0.0911 17.95 0.11133v-146.23c-10.338 0.0248-18.01 0.0577-17.95 0.11719-4.9814-0.1627-8.7828-1.1357-11.95-2.4492z"/>
        <path id="band-3" d="m204.05 11.903v146.27c9.2862-0.002 19.413-0.0123 29.908-0.0215v-146.24c-10.495-0.005-20.622-0.01-29.908-0.008z"/>
        <path id="band-4" d="m269.05 11.925v146.2c14.9-0.0198 16.498-0.027 29.9-0.0488v-146.12c-13.402-0.0159-15-0.022-29.9-0.0352z"/>
        <path id="band-5" d="m334.05 12.001v146.02c8.9272-0.0166 27.098-0.0432 29.9-0.0488v-145.93c-2.8024-0.004-20.973-0.0225-29.9-0.0352z"/>
        <path id="band-6" d="m414.05 0.049892v170h49.898v-170h-49.898z"/>
    </g>
</svg>
