<?xml version="1.0" encoding="UTF-8" standalone="no"?>
<svg
   xmlns:dc="http://purl.org/dc/elements/1.1/"
   xmlns:cc="http://creativecommons.org/ns#"
   xmlns:rdf="http://www.w3.org/1999/02/22-rdf-syntax-ns#"
   xmlns:svg="http://www.w3.org/2000/svg"
   xmlns="http://www.w3.org/2000/svg"
   xmlns:sodipodi="http://sodipodi.sourceforge.net/DTD/sodipodi-0.dtd"
   xmlns:inkscape="http://www.inkscape.org/namespaces/inkscape"
   height="370.00143"
   width="927"
   version="1.1"
   viewBox="0 0 926.99998 370.00145"
   id="svg4226"
   inkscape:version="0.91 r13725"
   sodipodi:docname="resistor flattened o jsx -- with wires.svg">
  <metadata
     id="metadata4239">
    <rdf:RDF>
      <cc:Work
         rdf:about="">
        <dc:format>image/svg+xml</dc:format>
        <dc:type
           rdf:resource="http://purl.org/dc/dcmitype/StillImage" />
        <dc:title></dc:title>
      </cc:Work>
    </rdf:RDF>
  </metadata>
  <defs
     id="defs4237" />
  <sodipodi:namedview
     pagecolor="#ffffff"
     bordercolor="#666666"
     borderopacity="1"
     objecttolerance="10"
     gridtolerance="10"
     guidetolerance="10"
     inkscape:pageopacity="0"
     inkscape:pageshadow="2"
     inkscape:window-width="2300"
     inkscape:window-height="1376"
     id="namedview4235"
     showgrid="false"
     fit-margin-left="200"
     fit-margin-right="200"
     fit-margin-top="100"
     fit-margin-bottom="100"
     inkscape:object-paths="true"
     inkscape:snap-intersection-paths="true"
     inkscape:object-nodes="true"
     inkscape:zoom="2.03"
     inkscape:cx="427.37937"
     inkscape:cy="145.99922"
     inkscape:window-x="0"
     inkscape:window-y="0"
     inkscape:window-maximized="0"
     inkscape:current-layer="svg4226" />
  <path
     style="opacity:1;fill:#9a9a9a;fill-opacity:0.42948717;fill-rule:nonzero;stroke:#000000;stroke-width:0.1;stroke-miterlimit:4;stroke-dasharray:none;stroke-opacity:1"
     d="m 1.4777645,166.00144 926.6009555,0 0,40.00001 -926.1083446,0 z"
     id="rect4241"
     inkscape:connector-curvature="0"
     sodipodi:nodetypes="ccccc" />
  <path
     id="resistor-body"
     d="m 727,166.00111 c -18.737,-1.2999 -26.612,-3.2618 -30,-10 -3.3877,-6.7382 -3.5105,-8.6876 -4,-20 -0.49,-11.313 -16.07,-31.102 -28,-36 l -56,0 c -11.996,-0.0696 -14.194,11.238 -34,12 0,0 -224.36,-0.35714 -224,0 -18.377,-0.60026 -21.004,-12.070002 -33,-12 l -56,0 c -11.925,4.8977 -27.51,24.687 -28,36 -0.48954,11.312 -0.61231,13.594 -4,20.332 -3.3877,6.7382 -11.263,8.368 -30,9.668 l 0,40 c 18.737,1.2999 26.612,1.2618 30,8 3.3877,6.7382 3.5105,8.6876 4,20 0.48953,11.312 16.075,31.102 28,36 l 56,0 c 11.996,0.0696 14.623,-11.4 33,-12 -0.35715,0.35714 224,-0.1 224,-0.1 19.764,0.42886 22.004,12.17 34,12.1 l 56,0 c 11.925,-4.898 27.51,-24.688 28,-36 0.48953,-11.312 0.61231,-13.262 4,-20 3.3877,-6.7382 11.263,-6.7001 30,-8 z"
     inkscape:connector-curvature="0" />
  <path
     id="band-1"
     d="m 274.05,100 0,170 29.9,0 0,-170 -29.9,0 z"
     inkscape:connector-curvature="0" />
  <path
     id="band-2"
     d="m 339.05,109.55081 0,150.9 c 3.1672,-1.3136 6.9686,-2.2885 11.95,-2.4512 -0.0595,0.0595 7.6124,0.0911 17.95,0.11133 l 0,-146.23 c -10.338,0.0248 -18.01,0.0577 -17.95,0.11719 -4.9814,-0.1627 -8.7828,-1.1357 -11.95,-2.4492 z"
     inkscape:connector-curvature="0" />
  <path
     id="band-3"
     d="m 404.05,111.85311 0,146.27 c 9.2862,-0.002 19.413,-0.0123 29.908,-0.0215 l 0,-146.24 c -10.495,-0.005 -20.622,-0.01 -29.908,-0.008 z"
     inkscape:connector-curvature="0" />
  <path
     id="band-4"
     d="m 469.05,111.87511 0,146.2 c 14.9,-0.0198 16.498,-0.027 29.9,-0.0488 l 0,-146.12 c -13.402,-0.0159 -15,-0.022 -29.9,-0.0352 z"
     inkscape:connector-curvature="0" />
  <path
     id="band-5"
     d="m 534.05,111.95111 0,146.02 c 8.9272,-0.0166 27.098,-0.0432 29.9,-0.0488 l 0,-145.93 c -2.8024,-0.004 -20.973,-0.0225 -29.9,-0.0352 z"
     inkscape:connector-curvature="0" />
  <path
     id="band-6"
     d="m 614.05,100 0,170 49.898,0 0,-170 -49.898,0 z"
     inkscape:connector-curvature="0" />
</svg>
