<svg id="svg4206" width="149mm" height="48mm" viewBox="0 0 527 170.1">
  <g id="g5514" transform="translate(-56 -814)">
    <path id="resistor-body" fill="#e8c599" fill-rule="evenodd" d="M583 880c-18.7-1.3-26.6-3.26-30-10-3.39-6.74-3.51-8.69-4-20s-16.1-31.1-28-36h-56c-12-.07-14.2 11.2-34 12 0 0-224-.357-224 0-18.4-.6-21-12.1-33-12h-56c-11.9 4.9-27.5 24.7-28 36-.49 11.3-.612 13.6-4 20.3-3.39 6.74-11.3 8.37-30 9.67v40c18.7 1.3 26.6 1.26 30 8 3.39 6.74 3.51 8.69 4 20s16.1 31.1 28 36h56c12 .07 14.6-11.4 33-12-.357.357 224-.1 224-.1 19.8.429 22 12.2 34 12.1h56c11.9-4.9 27.5-24.7 28-36 .49-11.3.612-13.3 4-20 3.39-6.74 11.3-6.7 30-8z"/>
  </g>
  <g id="g4207" transform="translate(-56 -814)">
    <path id="band-1" fill-opacity=".43" stroke="#000" stroke-width=".1" d="M130 814v170h29.9V814H130z"/>
  </g>
  <g id="g4209" transform="translate(-56 -814)">
    <path id="band-2" fill-opacity=".43" stroke="#000" stroke-width=".1" d="M195 824v151c3.17-1.31 6.97-2.29 11.9-2.45-.06.06 7.61.091 17.9.111v-146c-10.3.025-18 .058-17.9.117-4.98-.163-8.78-1.14-11.9-2.45z"/>
  </g>
  <g id="g4211" transform="translate(-56 -814)">
    <path id="band-3" fill-opacity=".43" stroke="#000" stroke-width=".09" d="M260 826v146c9.29-.002 19.4-.012 29.9-.021v-146c-10.5-.005-20.6-.01-29.9-.008z"/>
  </g>
  <g id="g4213" transform="translate(-56 -814)">
    <path id="band-4" fill-opacity=".43" stroke="#000" stroke-width=".1" d="M325 826v146c14.9-.02 16.5-.027 29.9-.049v-146c-13.4-.016-15-.022-29.9-.035z"/>
  </g>
  <g id="g4215" transform="translate(-56 -814)">
    <path id="band-5" fill-opacity=".43" stroke="#000" stroke-width=".1" d="M390 826v146c8.93-.017 27.1-.043 29.9-.049v-146c-2.8-.004-21-.022-29.9-.035z"/>
  </g>
  <g id="g4217" transform="translate(-56 -814)">
    <path id="band-6" fill-opacity=".43" stroke="#000" stroke-width=".1" d="M470 814v170h49.9V814H470z"/>
  </g>
</svg>
